<svg xmlns="http://www.w3.org/2000/svg" viewBox="0 0 800 600" width="800" height="600">
  <style>
    .title { font-family: sans-serif; font-size: 20px; font-weight: bold; text-anchor: middle; fill: #111827; }
    .label { font-family: sans-serif; font-size: 14px; text-anchor: middle; fill: #111827; }
    .sublabel { font-family: sans-serif; font-size: 12px; text-anchor: middle; fill: #6B7280; }
    .box { fill: #DBEAFE; stroke: #1F2937; stroke-width: 1.5; rx: 8; ry: 8; }
    .arrow { stroke: #374151; stroke-width: 2; fill: none; marker-end: url(#arrowhead); }
  </style>
  <defs>
    <marker id="arrowhead" markerWidth="10" markerHeight="7" refX="9" refY="3.5" orient="auto">
      <polygon points="0 0, 10 3.5, 0 7" fill="#374151"/>
    </marker>
  </defs>
  <rect width="800" height="600" fill="#FFFFFF"/>
  <text x="400" y="40" class="title">编程专家团队示例</text>
  
  <rect x="300" y="80" width="200" height="60" class="box"/>
  <text x="400" y="115" class="label">编程专家团队</text>
  <rect x="80" y="200" width="140" height="100" class="box"/>
  <text x="150" y="240" class="label">主程序员</text>
  <text x="150" y="260" class="sublabel">生成代码</text>
  <rect x="240" y="200" width="140" height="100" class="box"/>
  <text x="310" y="240" class="label">评审员</text>
  <text x="310" y="260" class="sublabel">质量审查</text>
  <rect x="400" y="200" width="140" height="100" class="box"/>
  <text x="470" y="240" class="label">文档员</text>
  <text x="470" y="260" class="sublabel">注释生成</text>
  <rect x="560" y="200" width="140" height="100" class="box"/>
  <text x="630" y="240" class="label">测试员</text>
  <text x="630" y="260" class="sublabel">用例编写</text>
  <rect x="300" y="370" width="200" height="80" class="box"/>
  <text x="400" y="405" class="label">人类开发者</text>
  <text x="400" y="425" class="sublabel">(架构主导)</text>
  <line x1="300" y1="450" x2="150" y2="300" class="arrow"/>
  <line x1="340" y1="450" x2="310" y2="300" class="arrow"/>
  <line x1="400" y1="450" x2="470" y2="300" class="arrow"/>
  <line x1="460" y1="450" x2="630" y2="300" class="arrow"/>
  <text x="400" y="510" class="sublabel">人类设定方向与高层架构,智能体团队执行战术性任务</text>

</svg>
