<svg xmlns="http://www.w3.org/2000/svg" viewBox="0 0 800 600" font-family="sans-serif, Microsoft YaHei, 微软雅黑">
  <defs>
    <marker id="arrow-17_8" viewBox="0 0 10 10" refX="9" refY="5" markerWidth="8" markerHeight="8" orient="auto-start-reverse">
      <path d="M0,0 L10,5 L0,10 z" fill="#374151"/>
    </marker>
  </defs>

  <rect width="800" height="600" fill="#FFFFFF"/>

  <!-- Title -->
  <text x="400" y="35" text-anchor="middle" font-size="20" font-weight="bold" fill="#111827">推理设计模式总览</text>
  <text x="400" y="58" text-anchor="middle" font-size="13" fill="#6B7280">Reasoning Design Patterns Overview</text>

  <!-- Central hub: 推理设计模式 -->
  <rect x="320" y="270" width="160" height="60" rx="8" ry="8" fill="#FEF3C7" stroke="#B45309" stroke-width="2"/>
  <text x="400" y="298" text-anchor="middle" font-size="16" font-weight="bold" fill="#111827">推理设计模式</text>
  <text x="400" y="318" text-anchor="middle" font-size="13" fill="#B45309">Reasoning Patterns</text>

  <!-- Branch 1: CoT (top-left) -->
  <rect x="60" y="100" width="180" height="70" rx="8" ry="8" fill="#DBEAFE" stroke="#1F2937" stroke-width="2"/>
  <text x="150" y="128" text-anchor="middle" font-size="15" font-weight="bold" fill="#111827">思维链 (CoT)</text>
  <text x="150" y="150" text-anchor="middle" font-size="12" fill="#374151">Chain of Thought</text>

  <!-- Branch 2: ToT (top-right) -->
  <rect x="560" y="100" width="180" height="70" rx="8" ry="8" fill="#DBEAFE" stroke="#1F2937" stroke-width="2"/>
  <text x="650" y="128" text-anchor="middle" font-size="15" font-weight="bold" fill="#111827">思维树 (ToT)</text>
  <text x="650" y="150" text-anchor="middle" font-size="12" fill="#374151">Tree of Thoughts</text>

  <!-- Branch 3: ReAct (middle-left) -->
  <rect x="60" y="265" width="180" height="70" rx="8" ry="8" fill="#DBEAFE" stroke="#1F2937" stroke-width="2"/>
  <text x="150" y="293" text-anchor="middle" font-size="15" font-weight="bold" fill="#111827">推理-行动 (ReAct)</text>
  <text x="150" y="315" text-anchor="middle" font-size="12" fill="#374151">Reason + Act</text>

  <!-- Branch 4: Self-Reflection (middle-right) -->
  <rect x="560" y="265" width="180" height="70" rx="8" ry="8" fill="#DBEAFE" stroke="#1F2937" stroke-width="2"/>
  <text x="650" y="293" text-anchor="middle" font-size="15" font-weight="bold" fill="#111827">自我反思</text>
  <text x="650" y="315" text-anchor="middle" font-size="12" fill="#374151">Self-Reflection</text>

  <!-- Branch 5: 多步推理规划 (bottom) -->
  <rect x="310" y="450" width="180" height="70" rx="8" ry="8" fill="#DBEAFE" stroke="#1F2937" stroke-width="2"/>
  <text x="400" y="478" text-anchor="middle" font-size="15" font-weight="bold" fill="#111827">多步推理规划</text>
  <text x="400" y="500" text-anchor="middle" font-size="12" fill="#374151">Multi-Step Planning</text>

  <!-- Connecting lines from center to each branch -->
  <line x1="320" y1="285" x2="240" y2="135" stroke="#374151" stroke-width="2" marker-end="url(#arrow-17_8)"/>
  <line x1="480" y1="285" x2="560" y2="135" stroke="#374151" stroke-width="2" marker-end="url(#arrow-17_8)"/>
  <line x1="320" y1="300" x2="240" y2="300" stroke="#374151" stroke-width="2" marker-end="url(#arrow-17_8)"/>
  <line x1="480" y1="300" x2="560" y2="300" stroke="#374151" stroke-width="2" marker-end="url(#arrow-17_8)"/>
  <line x1="400" y1="330" x2="400" y2="450" stroke="#374151" stroke-width="2" marker-end="url(#arrow-17_8)"/>

  <!-- Decorative chain nodes for CoT illustration -->
  <circle cx="60" cy="200" r="10" fill="#DBEAFE" stroke="#1F2937" stroke-width="1.5"/>
  <circle cx="95" cy="200" r="10" fill="#DBEAFE" stroke="#1F2937" stroke-width="1.5"/>
  <circle cx="130" cy="200" r="10" fill="#DBEAFE" stroke="#1F2937" stroke-width="1.5"/>
  <circle cx="165" cy="200" r="10" fill="#DBEAFE" stroke="#1F2937" stroke-width="1.5"/>
  <text x="62" y="204" text-anchor="middle" font-size="10" fill="#111827">思</text>
  <text x="97" y="204" text-anchor="middle" font-size="10" fill="#111827">维</text>
  <text x="132" y="204" text-anchor="middle" font-size="10" fill="#111827">链</text>
  <text x="167" y="204" text-anchor="middle" font-size="10" fill="#111827">条</text>
  <line x1="70" y1="200" x2="85" y2="200" stroke="#374151" stroke-width="1.5"/>
  <line x1="105" y1="200" x2="120" y2="200" stroke="#374151" stroke-width="1.5"/>
  <line x1="140" y1="200" x2="155" y2="200" stroke="#374151" stroke-width="1.5"/>

  <!-- Decorative tree nodes for ToT -->
  <circle cx="625" cy="205" r="9" fill="#DBEAFE" stroke="#1F2937" stroke-width="1.5"/>
  <circle cx="600" cy="225" r="7" fill="#DBEAFE" stroke="#1F2937" stroke-width="1.5"/>
  <circle cx="650" cy="225" r="7" fill="#DBEAFE" stroke="#1F2937" stroke-width="1.5"/>
  <circle cx="585" cy="245" r="6" fill="#DBEAFE" stroke="#1F2937" stroke-width="1.5"/>
  <circle cx="615" cy="245" r="6" fill="#DBEAFE" stroke="#1F2937" stroke-width="1.5"/>
  <circle cx="635" cy="245" r="6" fill="#DBEAFE" stroke="#1F2937" stroke-width="1.5"/>
  <circle cx="665" cy="245" r="6" fill="#DBEAFE" stroke="#1F2937" stroke-width="1.5"/>
  <line x1="622" y1="213" x2="605" y2="220" stroke="#374151" stroke-width="1.2"/>
  <line x1="628" y1="213" x2="645" y2="220" stroke="#374151" stroke-width="1.2"/>
  <line x1="597" y1="231" x2="589" y2="240" stroke="#374151" stroke-width="1.2"/>
  <line x1="603" y1="231" x2="619" y2="240" stroke="#374151" stroke-width="1.2"/>
  <line x1="647" y1="231" x2="639" y2="240" stroke="#374151" stroke-width="1.2"/>
  <line x1="653" y1="231" x2="669" y2="240" stroke="#374151" stroke-width="1.2"/>

  <!-- Decorative ReAct cycle -->
  <circle cx="80" cy="370" r="11" fill="#DBEAFE" stroke="#1F2937" stroke-width="1.5"/>
  <circle cx="135" cy="370" r="11" fill="#DBEAFE" stroke="#1F2937" stroke-width="1.5"/>
  <circle cx="190" cy="370" r="11" fill="#DBEAFE" stroke="#1F2937" stroke-width="1.5"/>
  <text x="80" y="374" text-anchor="middle" font-size="10" fill="#111827">思</text>
  <text x="135" y="374" text-anchor="middle" font-size="10" fill="#111827">行</text>
  <text x="190" y="374" text-anchor="middle" font-size="10" fill="#111827">观</text>
  <line x1="91" y1="370" x2="124" y2="370" stroke="#374151" stroke-width="1.5" marker-end="url(#arrow-17_8)"/>
  <line x1="146" y1="370" x2="179" y2="370" stroke="#374151" stroke-width="1.5" marker-end="url(#arrow-17_8)"/>
  <path d="M 200 380 Q 215 395 195 405 Q 145 415 90 405 Q 70 400 75 385" stroke="#374151" stroke-width="1.5" fill="none" marker-end="url(#arrow-17_8)"/>

  <!-- Decorative Self-Reflection mirror -->
  <ellipse cx="650" cy="370" rx="32" ry="22" fill="#DBEAFE" stroke="#1F2937" stroke-width="1.5"/>
  <ellipse cx="650" cy="370" rx="22" ry="14" fill="#FFFFFF" stroke="#1F2937" stroke-width="1"/>
  <text x="650" y="374" text-anchor="middle" font-size="11" fill="#111827">反思</text>
  <line x1="668" y1="390" x2="690" y2="410" stroke="#374151" stroke-width="1.5" marker-end="url(#arrow-17_8)"/>
  <path d="M 700 412 Q 690 430 670 422" stroke="#374151" stroke-width="1.5" fill="none" marker-end="url(#arrow-17_8)"/>

  <!-- Decorative planning steps -->
  <rect x="320" y="555" width="40" height="26" rx="5" ry="5" fill="#DBEAFE" stroke="#1F2937" stroke-width="1.5"/>
  <text x="340" y="572" text-anchor="middle" font-size="11" fill="#111827">步骤1</text>
  <rect x="380" y="555" width="40" height="26" rx="5" ry="5" fill="#DBEAFE" stroke="#1F2937" stroke-width="1.5"/>
  <text x="400" y="572" text-anchor="middle" font-size="11" fill="#111827">步骤2</text>
  <rect x="440" y="555" width="40" height="26" rx="5" ry="5" fill="#DBEAFE" stroke="#1F2937" stroke-width="1.5"/>
  <text x="460" y="572" text-anchor="middle" font-size="11" fill="#111827">步骤3</text>
  <line x1="360" y1="568" x2="380" y2="568" stroke="#374151" stroke-width="1.5" marker-end="url(#arrow-17_8)"/>
  <line x1="420" y1="568" x2="440" y2="568" stroke="#374151" stroke-width="1.5" marker-end="url(#arrow-17_8)"/>

  <!-- Footer note -->
  <text x="400" y="595" text-anchor="middle" font-size="12" fill="#6B7280">通过结构化推理提升 LLM 在复杂任务上的表现与可靠性</text>
</svg>